<?xml version="1.0" encoding="iso-8859-1"?>
<!-- Generator: Adobe Illustrator 19.0.0, SVG Export Plug-In . SVG Version: 6.00 Build 0)  -->
<svg version="1.1" id="Capa_1" xmlns="http://www.w3.org/2000/svg" xmlns:xlink="http://www.w3.org/1999/xlink" x="0px" y="0px"
	 viewBox="0 0 512.004 512.004" style="enable-background:new 0 0 512.004 512.004;" xml:space="preserve">
<path style="fill:#FCAC2B;" d="M132.464,335.41L242.742,77.34c24.423-47.487,73.348-77.338,126.74-77.338l0,0
	c78.715,0,142.522,63.807,142.522,142.522l0,0v3.345c0.009,51.644-27.918,99.254-72.995,124.454L176.597,379.543L132.464,335.41z"/>
<path style="fill:#E5E5E5;" d="M176.597,379.543l-44.133-44.133l-76.958,76.958c-15.994-11.157-37.998-7.229-49.155,8.765
	c-11.157,15.994-7.229,37.998,8.765,49.155c5.94,4.14,13.01,6.355,20.257,6.346c-0.035,19.498,15.747,35.333,35.244,35.368
	c19.498,0.035,35.333-15.747,35.368-35.244c0.009-7.247-2.207-14.317-6.346-20.257L176.597,379.543z"/>
<path style="fill:#A3603E;" d="M344.3,150.053C355.598,25.74,308.994,17.655,308.994,17.655l-4.66-1.862
	c-26.453,13.584-47.99,35.103-61.591,61.547L132.464,335.41l44.133,44.133l211.889-88.221l-0.053-0.044
	C388.433,291.277,335.474,247.145,344.3,150.053z"/>
<path style="fill:#FA962A;" d="M347.522,213.286c11.21,53.224,40.911,77.991,40.911,77.991l0.053,0.044l-211.889,88.221
	l262.412-109.255c45.068-25.191,72.995-72.783,72.995-124.419v-3.345c0-30.16-9.621-59.535-27.468-83.852
	C454.155,117.73,403.438,169.63,347.522,213.286z"/>
<path style="fill:#8F5436;" d="M388.433,291.277c0,0-29.701-24.767-40.911-77.991c-65.555,49.64-136.396,91.884-211.236,125.946
	l40.311,40.311l211.889-88.221L388.433,291.277z"/>
<circle style="fill:#E5E5E5;" cx="423.766" cy="123.573" r="35.306"/>
<g>
</g>
<g>
</g>
<g>
</g>
<g>
</g>
<g>
</g>
<g>
</g>
<g>
</g>
<g>
</g>
<g>
</g>
<g>
</g>
<g>
</g>
<g>
</g>
<g>
</g>
<g>
</g>
<g>
</g>
</svg>
