<?xml version="1.0" encoding="iso-8859-1"?>
<!-- Generator: Adobe Illustrator 19.0.0, SVG Export Plug-In . SVG Version: 6.00 Build 0)  -->
<svg version="1.1" id="Capa_1" xmlns="http://www.w3.org/2000/svg" xmlns:xlink="http://www.w3.org/1999/xlink" x="0px" y="0px"
	 viewBox="0 0 512.003 512.003" style="enable-background:new 0 0 512.003 512.003;" xml:space="preserve">
<path style="fill:#FDB62F;" d="M79.474,70.685v88.264c0,9.753,7.9,17.653,17.653,17.653s17.653-7.9,17.653-17.653v-8.826
	c0-9.753,7.9-17.653,17.653-17.653c9.753,0,17.653,7.9,17.653,17.653v26.479c0,9.753,7.9,17.653,17.653,17.653
	s17.653-7.9,17.653-17.653V70.685C185.391,70.685,79.474,70.685,79.474,70.685z"/>
<path style="fill:#5CABE0;" d="M467.835,512.003H44.169c-24.37,0-44.132-19.762-44.132-44.132h511.929
	C511.966,492.25,492.213,512.003,467.835,512.003z"/>
<path style="fill:#4398D1;" d="M368.538,467.871H143.465c-22.472,0-42.499-14.184-49.957-35.385L46.949,300.17h418.105
	l-46.559,132.316C411.037,453.688,391.01,467.871,368.538,467.871z"/>
<path style="fill:#5CABE0;" d="M414.876,27.365l-216.334,6.602c-12.569-21.986-36.4-35.076-61.696-33.893
	c-36.559,0-66.198,23.708-66.198,52.958s29.639,52.958,66.198,52.958c25.296,1.183,49.128-11.907,61.705-33.893l216.326,6.602
	c14.175,0.441,26.02-10.689,26.47-24.864c0.009-0.265,0.009-0.538,0.009-0.803l0,0c0-14.184-11.492-25.676-25.676-25.676
	C415.415,27.356,415.15,27.356,414.876,27.365z"/>
<path style="fill:#4398D1;" d="M136.546,83.254c-13.804,0.035-27.053-5.419-36.832-15.155l12.48-12.48
	c12.119,12.022,31.201,13.381,44.9,3.195l5.349-4.016l10.592,14.122l-5.349,4.007C158.7,79.661,147.773,83.28,136.546,83.254z"/>
<path style="fill:#5CABE0;" d="M17.69,264.865h476.624c9.753,0,17.653,7.9,17.653,17.653l0,0c0,9.753-7.9,17.653-17.653,17.653
	H17.69c-9.753,0-17.653-7.9-17.653-17.653l0,0C0.037,272.773,7.945,264.865,17.69,264.865z"/>
<g>
	<path style="fill:#E5E5E5;" d="M257.511,229.559c-2.339,0-4.59-0.927-6.24-2.586c-13.169-13.204-13.169-34.582,0-47.786
		c6.302-6.302,6.302-16.514,0.009-22.816l-0.009-0.009c-13.169-13.204-13.169-34.582,0-47.786c3.504-3.389,9.091-3.292,12.48,0.221
		c3.301,3.425,3.301,8.844,0,12.26c-6.284,6.311-6.284,16.514,0,22.825c13.195,13.187,13.204,34.573,0.018,47.768
		c-0.009,0.009-0.009,0.009-0.018,0.018c-6.284,6.311-6.284,16.514,0,22.825c3.442,3.451,3.442,9.038,0,12.48
		C262.092,228.633,259.85,229.559,257.511,229.559z"/>
	<path style="fill:#E5E5E5;" d="M345.775,229.559c-2.339,0-4.59-0.927-6.24-2.586c-13.169-13.204-13.169-34.582,0-47.786
		c6.302-6.302,6.302-16.514,0.009-22.816l-0.009-0.009c-13.169-13.204-13.169-34.582,0-47.786c3.504-3.389,9.091-3.292,12.48,0.221
		c3.301,3.425,3.301,8.844,0,12.26c-6.284,6.311-6.284,16.514,0,22.825c13.195,13.187,13.204,34.573,0.018,47.768
		c-0.009,0.009-0.009,0.009-0.018,0.018c-6.284,6.311-6.284,16.514,0,22.825c3.442,3.451,3.442,9.038,0,12.48
		C350.356,228.633,348.114,229.559,345.775,229.559z"/>
	<path style="fill:#E5E5E5;" d="M301.643,229.559c-2.339,0-4.59-0.927-6.24-2.586c-13.169-13.204-13.169-34.582,0-47.786
		c6.302-6.302,6.302-16.514,0.009-22.816l-0.009-0.009c-3.389-3.504-3.292-9.091,0.221-12.48c3.425-3.301,8.844-3.301,12.26,0
		c13.195,13.187,13.204,34.573,0.018,47.768c-0.009,0.009-0.009,0.009-0.018,0.018c-6.284,6.311-6.284,16.514,0,22.825
		c3.442,3.451,3.442,9.038,0,12.48C306.224,228.633,303.982,229.559,301.643,229.559z"/>
	<path style="fill:#E5E5E5;" d="M386.888,229.559c-2.339,0-4.59-0.927-6.24-2.586c-13.195-13.187-13.204-34.573-0.018-47.768
		c0.009-0.009,0.009-0.009,0.018-0.018c6.284-6.311,6.284-16.514,0-22.825c-3.389-3.504-3.292-9.091,0.221-12.48
		c3.425-3.301,8.844-3.301,12.26,0c13.169,13.204,13.169,34.582,0,47.786c-6.302,6.302-6.302,16.514-0.009,22.816l0.009,0.009
		c3.442,3.451,3.442,9.038,0,12.48C391.469,228.633,389.227,229.559,386.888,229.559z"/>
</g>
<path style="fill:#3E8CC7;" d="M388.009,300.17c-70.505,94.786-179.873,144.038-250.078,167.269
	c1.836,0.238,3.681,0.388,5.534,0.432h225.072c22.472,0,42.499-14.184,49.957-35.385l46.559-132.316H388.009z"/>
<g>
</g>
<g>
</g>
<g>
</g>
<g>
</g>
<g>
</g>
<g>
</g>
<g>
</g>
<g>
</g>
<g>
</g>
<g>
</g>
<g>
</g>
<g>
</g>
<g>
</g>
<g>
</g>
<g>
</g>
</svg>
