<svg height="511pt" viewBox="-70 0 511 511.99961" width="511pt" xmlns="http://www.w3.org/2000/svg"><path d="m249.933594 79.40625c-.9375-1.167969-2.785156-.496094-2.785156 1.011719-.019532 7.222656-2.496094 15.621093-4.65625 21.585937-.722657 1.992188-3.578126 1.824219-4.039063-.25-3.550781-15.960937-17.667969-36.453125-38.320313-47.867187-17.195312-9.503907-18.125-32.433594-17.1875-45.078125.085938-1.1875-1.484374-1.621094-2.019531-.5625-4.773437 9.40625-12.273437 13.21875-31.535156 35.550781-17.71875 20.546875-9.195313 50.316406-3.578125 64.378906.332031.824219-.707031 1.5-1.304688.84375-7.136718-7.828125-18.835937-14.742187-25.886718-18.503906-2.023438-1.082031-4.304688.898437-3.605469 3.117187 4.21875 13.421876.785156 23.679688-8.9375 46.429688-11.140625 26.066406 6.601563 42.878906 6.601563 42.878906h146.03125c25.648437-53.3125.558593-91.894531-8.777344-103.535156zm0 0" fill="#fed42d"/><g fill="#febe30"><path d="m126.375 140.0625c9.664062-22.609375 13.113281-25.871094 9.011719-39.085938-5.886719-4.382812-12.269531-8.066406-16.761719-10.460937-2.027344-1.082031-4.308594.894531-3.609375 3.113281 4.222656 13.425782.785156 23.683594-8.9375 46.433594-11.136719 26.0625 6.601563 42.878906 6.601563 42.878906h20.296874s-17.738281-16.816406-6.601562-42.878906zm0 0"/><path d="m145.816406 108.175781c.203125.515625-.144531 1.027344-.644531 1.089844 1.144531.980469 2.324219 2.046875 3.523437 3.179687 5 5.269532 15.039063 10.988282 12.589844-3.210937 0-.003906 0-.007813 0-.011719-3.515625-20.925781-4.273437-50.726562 8.40625-65.425781 5.640625-6.542969 10.265625-11.488281 14.117188-15.457031v-.003906c-.765625-4.175782-1.066406-8.328126-1.101563-12.113282-.03125-2.042968.042969-4.757812.238281-7.402344 0-.003906 0-.007812 0-.011718.085938-1.160156-1.492187-1.605469-2.019531-.5625 0 0-.003906.003906-.003906.007812-.898437 1.773438-2.046875 3.597656-3.355469 5.277344-4.988281 6.464844-12.929687 12.585938-28.171875 30.265625-17.71875 20.546875-9.195312 50.316406-3.578125 64.378906zm0 0"/><path d="m190.765625 117.199219c-2.734375-2.015625-6.464844-2.015625-9.203125 0-20.527344 15.101562-27.925781 42.285156-18.542969 65.742187h46.289063c9.390625-23.472656 1.976562-50.648437-18.542969-65.742187zm0 0"/></g><path d="m196.3125 121.902344c-1.746094-1.683594-3.589844-3.265625-5.546875-4.707032-2.734375-2.011718-6.464844-2.011718-9.203125 0-20.527344 15.105469-27.925781 42.289063-18.542969 65.746094h20.296875c-8.375-20.933594-3.484375-45.15625 12.996094-61.039062zm0 0" fill="#fea832"/><path d="m73.6875 105.625c-3.832031-1.726562-5.542969-6.230469-3.816406-10.066406 1.558594-3.464844.800781-7.597656-1.886719-10.289063-15.757813-15.757812-2.214844-42.402343 8.886719-34.316406 3.394531 2.476563 4.140625 7.238281 1.664062 10.636719l-.71875.988281c-2.683594 3.683594-2.292968 8.703125.933594 11.929687 7.132812 7.132813 9.140625 18.101563 5.003906 27.300782-1.726562 3.828125-6.230468 5.542968-10.066406 3.816406zm0 0" fill="#fed42d"/><path d="m270.246094 56.164062c-3.832032-1.726562-5.542969-6.230468-3.816406-10.066406 1.558593-3.464844.800781-7.597656-1.886719-10.285156-15.75-15.75-2.21875-42.40625 8.882812-34.320312 3.398438 2.476562 4.144531 7.238281 1.667969 10.632812l-.71875.988281c-2.6875 3.6875-2.292969 8.707031.933594 11.933594 7.128906 7.132813 9.140625 18.101563 5 27.300781-1.722656 3.832032-6.226563 5.542969-10.0625 3.816406zm0 0" fill="#fed42d"/><path d="m239.828125 406.578125h-106.558594c-4.203125 0-7.609375-3.40625-7.609375-7.613281 0-4.203125 3.40625-7.609375 7.609375-7.609375h106.558594c4.203125 0 7.613281 3.40625 7.613281 7.609375 0 4.207031-3.410156 7.613281-7.613281 7.613281zm0 0" fill="#d6d0d3"/><path d="m128.414062 349.601562-18.441406 72.878907c8.105469.191406 15.695313 2.496093 22.234375 6.394531l18.332031-72.476562c-7.597656-1.734376-14.984374-4.019532-22.125-6.796876zm0 0" fill="#e8e2e4"/><path d="m128.414062 349.601562-18.441406 72.878907c8.105469.191406 15.695313 2.496093 22.234375 6.394531l18.332031-72.476562c-7.597656-1.734376-14.984374-4.019532-22.125-6.796876zm0 0" fill="#e8e2e4"/><path d="m244.511719 349.457031c-7.136719 2.796875-14.519531 5.097657-22.109375 6.855469l39.183594 148.261719c1.425781 5.324219 6.949218 8.511719 12.269531 7.085937l2.984375-.800781c5.324218-1.425781 8.511718-6.949219 7.085937-12.273437zm0 0" fill="#e8e2e4"/><path d="m127.722656 414.335938 15.160156-59.914063c-4.921874-1.386719-9.753906-2.984375-14.46875-4.820313l-18.441406 72.878907c8.105469.191406 15.695313 2.496093 22.234375 6.394531l1.386719-5.492188c-.023438-.003906-.050781-.007812-.078125-.015624-4.167969-.828126-6.835937-4.914063-5.792969-9.03125zm0 0" fill="#d6d0d3"/><path d="m277.273438 504.574219-37.136719-140.515625c-1.117188-4.226563 1.375-8.539063 5.578125-9.738282l.074218-.019531-1.277343-4.84375c-7.136719 2.796875-14.519531 5.097657-22.109375 6.855469l39.183594 148.261719c1.425781 5.324219 6.949218 8.511719 12.273437 7.085937l2.980469-.800781c1.21875-.324219 2.316406-.875 3.28125-1.578125-1.332032-1.234375-2.347656-2.835938-2.847656-4.707031zm0 0" fill="#d6d0d3"/><path d="m108.882812 511.792969c-25.1875 0-45.683593-20.496094-45.683593-45.683594 0-25.191406 20.496093-45.683594 45.683593-45.683594 25.191407 0 45.683594 20.492188 45.683594 45.683594 0 25.1875-20.492187 45.683594-45.683594 45.683594zm0-64.050781c-10.125 0-18.363281 8.238281-18.363281 18.367187 0 10.125 8.238281 18.363281 18.363281 18.363281 10.128907 0 18.363282-8.238281 18.363282-18.363281 0-10.128906-8.234375-18.367187-18.363282-18.367187zm0 0" fill="#57555c"/><path d="m82.144531 466.109375c0-21.941406 15.550781-40.316406 36.210938-44.691406-3.054688-.644531-6.222657-.992188-9.472657-.992188-25.1875 0-45.683593 20.492188-45.683593 45.683594 0 25.1875 20.496093 45.683594 45.683593 45.683594 3.25 0 6.417969-.347657 9.472657-.996094-20.660157-4.371094-36.210938-22.746094-36.210938-44.6875zm0 0" fill="#48464c"/><path d="m186.273438 362.449219c88.164062 0 159.636718-71.472657 159.636718-159.636719h-319.273437c0 88.164062 71.472656 159.636719 159.636719 159.636719zm0 0" fill="#757577"/><path d="m47.964844 202.8125h-21.328125c0 91.941406 77.632812 165.386719 170.300781 159.273438-83.191406-5.488282-148.972656-74.695313-148.972656-159.273438zm0 0" fill="#57555c"/><path d="m362.027344 178.667969h-351.507813c-5.511719 0-10.019531 4.507812-10.019531 10.019531v5.117188c0 5.511718 4.507812 10.023437 10.019531 10.023437h351.507813c5.511718 0 10.019531-4.511719 10.019531-10.023437v-5.117188c0-5.511719-4.511719-10.019531-10.019531-10.019531zm0 0" fill="#57555c"/><path d="m362.027344 187.589844h-351.507813c-3.457031 0-6.519531-1.777344-8.324219-4.464844-1.070312 1.597656-1.695312 3.507812-1.695312 5.5625v5.117188c0 5.511718 4.507812 10.019531 10.019531 10.019531h351.507813c5.511718 0 10.019531-4.507813 10.019531-10.019531v-5.117188c0-2.054688-.628906-3.96875-1.699219-5.5625-1.800781 2.6875-4.863281 4.464844-8.320312 4.464844zm0 0" fill="#48464c"/></svg>