<?xml version="1.0" encoding="iso-8859-1"?>
<!-- Generator: Adobe Illustrator 19.0.0, SVG Export Plug-In . SVG Version: 6.00 Build 0)  -->
<svg version="1.1" id="Capa_1" xmlns="http://www.w3.org/2000/svg" xmlns:xlink="http://www.w3.org/1999/xlink" x="0px" y="0px"
	 viewBox="0 0 512 512" style="enable-background:new 0 0 512 512;" xml:space="preserve">
<g>
	<path style="fill:#3E8CC7;" d="M433.898,334.104l-37.905,50.54c-8.912,11.889-22.91,18.883-37.767,18.883h-68.825l31.683-69.424
		H433.898z"/>
	<polygon style="fill:#3E8CC7;" points="234.305,446.918 164.881,403.528 164.881,368.816 234.305,368.816 	"/>
	<path style="fill:#3E8CC7;" d="M192.746,73.765c-17.408,0-33.662,8.704-43.32,23.188l-19.256,28.88v34.712h173.559v-34.712
		l34.712-52.068H192.746z"/>
</g>
<path style="fill:#87CED9;" d="M289.401,403.528H144.479c-35.901-0.009-69.268-18.501-88.29-48.944L0,264.68l56.19-89.904
	c19.031-30.451,52.406-48.944,88.307-48.944h144.922c35.901,0,69.276,18.493,88.307,48.944l56.173,89.904l-56.19,89.904
	C358.678,385.035,325.302,403.528,289.401,403.528z"/>
<path style="fill:#4398D1;" d="M289.401,125.833H144.479c-35.901,0.009-69.268,18.501-88.29,48.944L0,264.68h433.898l-56.19-89.904
	C358.678,144.334,325.302,125.833,289.401,125.833z"/>
<path style="fill:#71C4D1;" d="M74.032,375.967c19.204,17.694,44.353,27.535,70.465,27.561h144.922
	c35.901,0,69.276-18.493,88.307-48.944l56.172-89.904H268.331C209.113,310.717,143.698,348.18,74.032,375.967z"/>
<path style="fill:#3E8CC7;" d="M368.857,162.792c-29.08,38.07-62.855,72.305-100.526,101.888h165.567l-56.19-89.904
	C375.044,170.577,372.094,166.567,368.857,162.792z"/>
<g>
	<path style="fill:#126099;" d="M112.814,290.714c-14.379,0-26.034-11.655-26.034-26.034c0-14.379,11.655-26.034,26.034-26.034
		s26.034,11.655,26.034,26.034C138.847,279.06,127.193,290.714,112.814,290.714z M112.814,256.002c-4.79,0-8.678,3.888-8.678,8.678
		c0,4.79,3.888,8.678,8.678,8.678s8.678-3.888,8.678-8.678C121.492,259.89,117.604,256.002,112.814,256.002z"/>
	<path style="fill:#126099;" d="M65.137,362.741c-1.623,0-3.237-0.165-4.825-0.486c-6.335-1.241-11.906-4.972-15.464-10.353
		c-2.664-3.983-1.588-9.372,2.404-12.036s9.372-1.579,12.036,2.404c2.117,3.202,6.422,4.079,9.624,1.961
		c0.009-0.009,0.026-0.017,0.035-0.026c3.202-2.117,4.079-6.422,1.961-9.624c-0.009-0.009-0.017-0.026-0.026-0.035l-60.746-91.119
		c-2.664-3.992-1.588-9.372,2.404-12.036s9.372-1.588,12.036,2.404l60.746,91.119c7.472,11.151,4.495,26.242-6.656,33.714
		C74.665,361.31,69.953,362.741,65.137,362.741z"/>
</g>
<path style="fill:#3E8CC7;" d="M503.322,342.782L503.322,342.782c-16.063,0-30.867-8.713-38.678-22.754l-30.746-55.348
	l30.746-55.348c7.81-14.041,22.615-22.754,38.678-22.754l0,0V342.782z"/>
<g>
	<path style="fill:#126099;" d="M503.322,273.358h-69.424c-4.79,0-8.678-3.888-8.678-8.678c0-4.79,3.888-8.678,8.678-8.678h69.424
		c4.79,0,8.678,3.888,8.678,8.678C512,269.471,508.112,273.358,503.322,273.358z"/>
	<path style="fill:#126099;" d="M503.322,238.647h-52.068c-4.79,0-8.678-3.888-8.678-8.678s3.888-8.678,8.678-8.678h52.068
		c4.79,0,8.678,3.888,8.678,8.678S508.112,238.647,503.322,238.647z"/>
	<path style="fill:#126099;" d="M503.322,308.07h-52.068c-4.79,0-8.678-3.888-8.678-8.678s3.888-8.678,8.678-8.678h52.068
		c4.79,0,8.678,3.888,8.678,8.678S508.112,308.07,503.322,308.07z"/>
	<path style="fill:#126099;" d="M173.559,134.511c-4.79,0-8.678-3.896-8.669-8.687c0-1.71,0.512-3.384,1.458-4.808l34.712-52.068
		c2.664-3.992,8.044-5.068,12.036-2.404s5.068,8.044,2.404,12.036l0,0l-34.712,52.068
		C179.174,133.062,176.466,134.52,173.559,134.511z"/>
	<path style="fill:#126099;" d="M216.949,134.511c-4.79,0-8.678-3.896-8.669-8.687c0-1.71,0.512-3.384,1.458-4.808l34.712-52.068
		c2.664-3.992,8.044-5.068,12.036-2.404c3.992,2.664,5.068,8.044,2.404,12.036l0,0l-34.712,52.068
		C222.564,133.062,219.856,134.52,216.949,134.511z"/>
	<path style="fill:#126099;" d="M260.339,134.511c-4.79,0-8.678-3.896-8.669-8.687c0-1.71,0.512-3.384,1.458-4.808l34.712-52.068
		c2.664-3.992,8.044-5.068,12.036-2.404c3.983,2.664,5.068,8.044,2.404,12.036l-34.712,52.068
		C265.954,133.062,263.246,134.52,260.339,134.511z"/>
	<path style="fill:#126099;" d="M208.028,259.153c-1.614-14.857-8.392-28.681-19.152-39.051l-33.54-33.523
		c-3.445-3.332-8.938-3.237-12.271,0.217c-3.246,3.367-3.246,8.695,0,12.054l35.154,35.154c9.554,9.528,14.128,22.962,12.349,36.343
		c-1.493,9.997-6.248,19.222-13.538,26.225l-33.94,33.94c-3.22,3.549-2.959,9.034,0.59,12.262c3.306,3.003,8.348,3.003,11.655,0.009
		l35.154-35.154C203.273,294.897,209.712,277.116,208.028,259.153z"/>
	<polygon style="fill:#126099;" points="225.627,316.748 312.407,316.748 251.661,351.46 	"/>
	<path style="fill:#126099;" d="M407.864,377.494h-43.39c-4.79,0-8.678-3.888-8.678-8.678s3.888-8.678,8.678-8.678h43.39
		c4.79,0,8.678,3.888,8.678,8.678S412.655,377.494,407.864,377.494z"/>
	<rect x="234.305" y="177.901" style="fill:#126099;" width="17.356" height="17.356"/>
	<rect x="277.695" y="177.901" style="fill:#126099;" width="17.356" height="17.356"/>
	<rect x="321.085" y="177.901" style="fill:#126099;" width="17.356" height="17.356"/>
	<rect x="260.339" y="212.613" style="fill:#126099;" width="17.356" height="17.356"/>
	<rect x="303.729" y="212.613" style="fill:#126099;" width="17.356" height="17.356"/>
	<rect x="347.119" y="212.613" style="fill:#126099;" width="17.356" height="17.356"/>
</g>
<g>
</g>
<g>
</g>
<g>
</g>
<g>
</g>
<g>
</g>
<g>
</g>
<g>
</g>
<g>
</g>
<g>
</g>
<g>
</g>
<g>
</g>
<g>
</g>
<g>
</g>
<g>
</g>
<g>
</g>
</svg>
